<svg xmlns="http://www.w3.org/2000/svg" width="21.818" height="28.636" viewBox="0 0 21.818 28.636">
  <defs>
    <style>
      .cls-1 {
        fill: none;
        stroke-miterlimit: 10;
      }

      .cls-2, .cls-4 {
        fill: #979797;
      }

      .cls-3, .cls-4 {
        stroke: none;
      }
    </style>
  </defs>
  <g id="Group_7" data-name="Group 7" transform="translate(0 -1.364)">
    <g id="Combined_Shape" data-name="Combined Shape" class="cls-1" transform="translate(0 1.364)">
      <path class="cls-3" d="M0,24.546V22.955a2.5,2.5,0,0,1,2.5-2.5h.227V10.909a8.185,8.185,0,0,1,5.492-7.73,2.727,2.727,0,1,1,5.38,0,8.185,8.185,0,0,1,5.491,7.729v9.545h.228a2.5,2.5,0,0,1,2.5,2.5v1.591Z"/>
      <path class="cls-4" d="M 20.81780052185059 23.54570007324219 L 20.81780052185059 22.95450019836426 C 20.81780052185059 22.12729072570801 20.14521980285645 21.45429992675781 19.31850051879883 21.45429992675781 L 19.09079933166504 21.45429992675781 L 18.09079933166504 21.45429992675781 L 18.09079933166504 20.45429992675781 L 18.09079933166504 10.90890026092529 C 18.09079933166504 7.853960037231445 16.15377044677734 5.127359867095947 13.2707405090332 4.124100208282471 L 12.47416019439697 3.84689998626709 L 12.61305046081543 3.01498007774353 C 12.62880992889404 2.920589923858643 12.63679981231689 2.823699951171875 12.63679981231689 2.726999998092651 C 12.63679981231689 1.774730086326599 11.86167049407959 1 10.90890026092529 1 C 9.956630706787109 1 9.181900024414062 1.774730086326599 9.181900024414062 2.726999998092651 C 9.181900024414062 2.82371997833252 9.18986988067627 2.920520067214966 9.20559024810791 3.014709949493408 L 9.344460487365723 3.846689939498901 L 8.547810554504395 4.12382984161377 C 5.66433048248291 5.126930236816406 3.72700023651123 7.853640079498291 3.72700023651123 10.90890026092529 L 3.72700023651123 20.45429992675781 L 3.72700023651123 21.45429992675781 L 2.72700023651123 21.45429992675781 L 2.500200271606445 21.45429992675781 C 1.672990202903748 21.45429992675781 1.000000238418579 22.12729072570801 1.000000238418579 22.95450019836426 L 1.000000238418579 23.54570007324219 L 20.81780052185059 23.54570007324219 M 21.81780052185059 24.54570007324219 L 2.60925304473858e-07 24.54570007324219 L 2.60925304473858e-07 22.95450019836426 C 2.60925304473858e-07 21.57390022277832 1.119600296020508 20.45429992675781 2.500200271606445 20.45429992675781 L 2.72700023651123 20.45429992675781 L 2.72700023651123 10.90890026092529 C 2.72700023651123 7.332170009613037 5.021590232849121 4.291749954223633 8.219240188598633 3.179350137710571 C 8.194680213928223 3.032210111618042 8.181900024414062 2.881119966506958 8.181900024414062 2.726999998092651 C 8.181900024414062 1.221300005912781 9.403200149536133 3.662109193669494e-08 10.90890026092529 3.662109193669494e-08 C 12.41550064086914 3.662109193669494e-08 13.63679981231689 1.221300005912781 13.63679981231689 2.726999998092651 C 13.63679981231689 2.881210088729858 13.62398052215576 3.032419919967651 13.59940052032471 3.179650068283081 C 16.79665946960449 4.29226016998291 19.09079933166504 7.332449913024902 19.09079933166504 10.90890026092529 L 19.09079933166504 20.45429992675781 L 19.31850051879883 20.45429992675781 C 20.69910049438477 20.45429992675781 21.81780052185059 21.57390022277832 21.81780052185059 22.95450019836426 L 21.81780052185059 24.54570007324219 Z"/>
    </g>
    <path id="Oval_4" data-name="Oval 4" class="cls-2" d="M3.409,3.409C5.292,3.409,6.818,0,6.818,0H0S1.526,3.409,3.409,3.409Z" transform="translate(8.182 26.591)"/>
  </g>
</svg>
