<svg xmlns="http://www.w3.org/2000/svg" xmlns:xlink="http://www.w3.org/1999/xlink" width="17" height="20" viewBox="0 0 17 20">
  <defs>
    <style>
      .cls-1, .cls-4 {
        fill: none;
      }

      .cls-2 {
        clip-path: url(#clip-path);
      }

      .cls-3 {
        fill: #d8d8d8;
      }

      .cls-3, .cls-4 {
        stroke: #979797;
        stroke-miterlimit: 10;
      }

      .cls-4 {
        stroke-width: 2px;
      }

      .cls-5 {
        fill: #979797;
      }

      .cls-6 {
        stroke: none;
      }
    </style>
    <clipPath id="clip-path">
      <rect class="cls-1" width="17" height="20"/>
    </clipPath>
  </defs>
  <g id="Delete-Icon" class="cls-2">
    <g id="Rectangle_2" data-name="Rectangle 2" class="cls-3" transform="translate(0 3)">
      <rect class="cls-6" width="17" height="2" rx="1"/>
      <rect class="cls-1" x="0.5" y="0.5" width="16" height="1" rx="0.5"/>
    </g>
    <g id="Rectangle_2_Copy_2" data-name="Rectangle 2 Copy 2" class="cls-3" transform="translate(4)">
      <path class="cls-6" d="M1,0H8A1,1,0,0,1,9,1V2A0,0,0,0,1,9,2H0A0,0,0,0,1,0,2V1A1,1,0,0,1,1,0Z"/>
      <rect class="cls-1" x="0.5" y="0.5" width="8" height="1" rx="0.5"/>
    </g>
    <g id="Rectangle" class="cls-4" transform="translate(2 3)">
      <rect class="cls-6" width="13" height="17" rx="1"/>
      <rect class="cls-1" x="1" y="1" width="11" height="15"/>
    </g>
    <rect id="Rectangle_39" data-name="Rectangle 39" class="cls-5" width="11" height="3" transform="translate(3 15)"/>
  </g>
</svg>
