<svg xmlns="http://www.w3.org/2000/svg" width="20.259" height="20.316" viewBox="0 0 20.259 20.316">
  <defs>
    <style>
      .cls-1, .cls-3 {
        fill: none;
      }

      .cls-2, .cls-5 {
        fill: #979797;
      }

      .cls-3 {
        stroke: #979797;
        stroke-linecap: square;
        stroke-miterlimit: 10;
      }

      .cls-4, .cls-5 {
        stroke: none;
      }
    </style>
  </defs>
  <g id="Edit-Icon" transform="translate(0.021 -0.006)">
    <g id="Group_15" data-name="Group 15" transform="translate(15.756 0) rotate(45)">
      <g id="Rectangle_20" data-name="Rectangle 20" class="cls-1" transform="translate(0 0)">
        <path class="cls-4" d="M1,0,5.266.023a1.006,1.006,0,0,1,1,1l.078,17.621a.985.985,0,0,1-.991.991l-4.271-.019a1.006,1.006,0,0,1-1-1L0,1A.985.985,0,0,1,1,0Z"/>
        <path class="cls-5" d="M 1.004439353942871 1.004428863525391 L 1.081811428070068 18.61247444152832 C 1.082491397857666 18.61397361755371 1.085061550140381 18.61654472351074 1.086471557617188 18.61698341369629 L 5.343883514404297 18.6357421875 L 5.2665114402771 1.027713775634766 C 5.265831470489502 1.026214599609375 5.263261318206787 1.023643493652344 5.26185131072998 1.023204803466797 L 1.004439353942871 1.004428863525391 M 0.9911360740661621 0.004373550415039062 C 0.9926447868347168 0.004373550415039062 0.9941010475158691 0.004377365112304688 0.9956116676330566 0.004384994506835938 L 5.266261577606201 0.02321434020996094 C 5.816121578216553 0.025634765625 6.263831615447998 0.4733543395996094 6.266261577606201 1.023214340209961 L 6.343931198120117 18.64457321166992 C 6.346354961395264 19.19293403625488 5.904953002929688 19.63581466674805 5.357187271118164 19.63581466674805 C 5.355678558349609 19.63581466674805 5.354221820831299 19.63581085205078 5.35271167755127 19.63580322265625 L 1.082061290740967 19.61697387695312 C 0.5322012901306152 19.61455345153809 0.08449125289916992 19.16683387756348 0.0820612907409668 18.61697387695312 L 0.004391670227050781 0.9956150054931641 C 0.001967906951904297 0.4472637176513672 0.4433698654174805 0.004373550415039062 0.9911360740661621 0.004373550415039062 Z"/>
      </g>
      <path id="Rectangle_20_Copy" data-name="Rectangle 20 Copy" class="cls-2" d="M0,0,6.262.028,3.146,3.493Z" transform="translate(0.083 18.901)"/>
    </g>
    <path id="Line" class="cls-3" d="M2.482,2.5.5.5" transform="translate(14.51 3.884)"/>
  </g>
</svg>
