<svg xmlns="http://www.w3.org/2000/svg" width="19.824" height="19.824" viewBox="0 0 19.824 19.824">
  <path id="Path_6" data-name="Path 6" d="M0,2.672,2.823,5.52,8.294,0" transform="translate(5.71 6.704)" fill="none" stroke="#8954ba" stroke-miterlimit="10" stroke-width="2"/>
  <g id="Rectangle_31_Copy_2" data-name="Rectangle 31 Copy 2" fill="none">
    <path d="M2,0H17.824a2,2,0,0,1,2,2V17.824a2,2,0,0,1-2,2H2a2,2,0,0,1-2-2V2A2,2,0,0,1,2,0Z" stroke="none"/>
    <path d="M 1.999996185302734 1.999996185302734 L 1.999996185302734 17.8244571685791 L 17.8244571685791 17.8244571685791 L 17.8244571685791 1.999996185302734 L 1.999996185302734 1.999996185302734 M 1.999996185302734 -3.814697265625e-06 L 17.8244571685791 -3.814697265625e-06 C 18.92902755737305 -3.814697265625e-06 19.8244571685791 0.8954257965087891 19.8244571685791 1.999996185302734 L 19.8244571685791 17.8244571685791 C 19.8244571685791 18.92902755737305 18.92902755737305 19.8244571685791 17.8244571685791 19.8244571685791 L 1.999996185302734 19.8244571685791 C 0.8954257965087891 19.8244571685791 -3.814697265625e-06 18.92902755737305 -3.814697265625e-06 17.8244571685791 L -3.814697265625e-06 1.999996185302734 C -3.814697265625e-06 0.8954257965087891 0.8954257965087891 -3.814697265625e-06 1.999996185302734 -3.814697265625e-06 Z" stroke="none" fill="#8954ba"/>
  </g>
</svg>
