<svg xmlns="http://www.w3.org/2000/svg" xmlns:xlink="http://www.w3.org/1999/xlink" width="340" height="186.585" viewBox="0 0 340 186.585">
  <defs>
    <style>
      .cls-1, .cls-4, .cls-6 {
        fill: none;
      }

      .cls-2 {
        clip-path: url(#clip-path);
      }

      .cls-3 {
        fill: #f3f7ff;
      }

      .cls-4, .cls-5 {
        stroke: #75a4fe;
      }

      .cls-4, .cls-5, .cls-6 {
        stroke-linecap: round;
        stroke-miterlimit: 10;
        stroke-width: 2.5px;
      }

      .cls-4, .cls-6 {
        stroke-linejoin: round;
      }

      .cls-5 {
        fill: #fff;
      }

      .cls-6 {
        stroke: #a4c3fe;
      }

      .cls-7 {
        fill: #4a4a4a;
        font-size: 20px;
        font-family: AvenirNext-Regular, Avenir Next;
      }
    </style>
    <clipPath id="clip-path">
      <rect class="cls-1" width="216" height="122"/>
    </clipPath>
  </defs>
  <g id="Card_-_NoItems" data-name="Card - NoItems" transform="translate(-30 -91)">
    <g id="EmptyState" class="cls-2" transform="translate(92 91)">
      <path id="Background" class="cls-3" d="M202,63a7,7,0,1,1,7,7A7,7,0,0,1,202,63Zm-62,7a7.037,7.037,0,0,1-1.5-.161A7.043,7.043,0,0,1,137,70H46a7,7,0,1,1,0-14H7A7,7,0,1,1,7,42H47a7,7,0,0,0,0-14H22a7,7,0,0,1,0-14H62A7,7,0,1,1,62,0h57a7,7,0,0,1,0,14h64a7,7,0,1,1,0,14h22a7,7,0,1,1,0,14H186a7,7,0,1,0,0,14h6a7,7,0,0,1,0,14Z" transform="translate(0 27)"/>
      <path id="line" class="cls-4" d="M13,.5h0ZM.128.5h0Z" transform="translate(40 108)"/>
      <path id="bag" class="cls-5" d="M71.045,79H4.461A3.983,3.983,0,0,1,.506,75V3A3.022,3.022,0,0,1,3.543,0H73.022A1.991,1.991,0,0,1,75,2V75A3.982,3.982,0,0,1,71.045,79Z" transform="translate(75.5 43)"/>
      <path id="lines" class="cls-6" d="M52.1,4.3,41,16.756ZM26,0V0ZM0,4.3,11.1,16.756Z" transform="translate(87)"/>
    </g>
    <text id="Your_bag_is_empty_Ch" data-name="Your bag is empty Ch" class="cls-7" transform="translate(30 240.585)"><tspan x="48.76" y="20">Are u sure, want to delete?</tspan></text>
  </g>
</svg>
